<?xml version="1.0" encoding="UTF-8"?>
<svg version="1.1" xmlns="http://www.w3.org/2000/svg" width="225" height="225">
<path d="M0 0 C74.25 0 148.5 0 225 0 C225 74.25 225 148.5 225 225 C150.75 225 76.5 225 0 225 C0 150.75 0 76.5 0 0 Z " fill="#000000" transform="translate(0,0)"/>
<path d="M0 0 C2.34807374 0.61254097 3.38206133 1.38179695 5.0390625 3.140625 C6.9765625 6.515625 6.9765625 6.515625 7.2265625 9.390625 C5.71214317 13.17667333 3.5953783 15.52340253 0.83203125 18.48046875 C-1.74899025 21.31144181 -3.85498334 24.36150986 -6.0234375 27.515625 C-5.42917969 27.7115625 -4.83492188 27.9075 -4.22265625 28.109375 C9.42113034 33.03217203 22.75820849 44.29727099 32.9765625 54.515625 C33.4101265 57.56915433 33.44574149 60.46596153 32.9765625 63.515625 C30.49199992 66.51171517 29.02341708 67.37984052 25.17578125 67.87890625 C20.96644293 67.40092278 19.17251145 65.81823791 15.9140625 63.140625 C14.7775103 62.22635542 13.6407863 61.31229937 12.50390625 60.3984375 C11.92495605 59.92438477 11.34600586 59.45033203 10.74951172 58.96191406 C7.85845231 56.60352299 4.92096672 54.30680188 1.9765625 52.015625 C0.9453125 51.2009375 -0.0859375 50.38625 -1.1484375 49.546875 C-7.27735427 45.21666206 -12.68196857 44.75652127 -20.0234375 45.515625 C-28.07515588 47.23231213 -33.20053652 54.7744668 -38.36767578 60.65869141 C-40.0846175 62.58423825 -41.84040034 64.46573721 -43.61328125 66.33984375 C-44.20343018 66.96455566 -44.7935791 67.58926758 -45.40161133 68.23291016 C-46.54362423 69.43924607 -47.68790252 70.64344248 -48.8347168 71.84521484 C-53.26951852 76.57006651 -55.30860534 79.38557136 -55.3359375 85.890625 C-55.35269531 86.80585937 -55.36945313 87.72109375 -55.38671875 88.6640625 C-54.5349992 95.34960308 -50.45470084 99.54140406 -45.88671875 104.0859375 C-45.28844772 104.68945038 -44.6901767 105.29296326 -44.07377625 105.9147644 C-42.81085308 107.18408541 -41.54407336 108.44957966 -40.27368164 109.71142578 C-38.34700024 111.62961104 -36.43969403 113.5656774 -34.53320312 115.50390625 C-33.29800712 116.74071501 -32.06171359 117.97642885 -30.82421875 119.2109375 C-30.26245438 119.78393585 -29.70069 120.3569342 -29.12190247 120.94729614 C-24.29430645 125.6925953 -18.94777245 129.50206013 -12.0234375 130.015625 C-3.21955349 129.47630717 2.50040674 123.47602628 8.2265625 117.390625 C9.6020981 115.94605694 10.98214524 114.50576817 12.3671875 113.0703125 C12.96563477 112.43593262 13.56408203 111.80155273 14.18066406 111.14794922 C17.09157647 108.50216885 19.01775815 107.47567482 22.9765625 107.640625 C26.54887426 108.68254926 27.90751452 109.41205304 29.9765625 112.515625 C30.66066195 115.85014256 30.87459757 117.32206195 29.9765625 120.515625 C27.13823273 124.52374441 23.70240008 127.81331615 20.1640625 131.203125 C19.25462891 132.12673828 18.34519531 133.05035156 17.40820312 134.00195312 C9.37919168 141.88343503 0.47559547 147.56552689 -11.0234375 147.828125 C-25.30880374 147.68511243 -34.47927238 140.35965549 -44.19140625 130.68359375 C-44.83410965 130.04754715 -45.47681305 129.41150055 -46.13899231 128.75617981 C-47.48515486 127.42006516 -48.82869155 126.08130005 -50.16967773 124.73999023 C-52.20593509 122.70811664 -54.25767988 120.692808 -56.31054688 118.67773438 C-57.62597902 117.36817018 -58.9404645 116.05765423 -60.25390625 114.74609375 C-60.85921677 114.15515427 -61.46452728 113.56421478 -62.08818054 112.95536804 C-69.53705543 105.42670034 -73.8886279 96.76422797 -74.3359375 86.140625 C-73.8335204 68.96978178 -60.10657938 57.41146894 -48.6328125 46.15625 C-46.22599126 43.70269437 -44.0160147 41.0873664 -41.7734375 38.484375 C-39.57269182 36.00853611 -37.22782972 33.70685198 -34.86450195 31.38769531 C-33.10174274 29.595249 -31.45435678 27.75021296 -29.81640625 25.84375 C-25.93336691 21.37779212 -21.90206246 17.06464538 -17.8359375 12.765625 C-17.13791016 12.02441406 -16.43988281 11.28320312 -15.72070312 10.51953125 C-13.8272466 8.51257543 -11.93402545 6.50628205 -10.0234375 4.515625 C-9.36947998 3.78956055 -8.71552246 3.06349609 -8.04174805 2.31542969 C-5.48426013 0.03481992 -3.38583924 -0.17753464 0 0 Z " fill="#FCFBFA" transform="translate(124.0234375,39.484375)"/>
<path d="M0 0 C1.47921141 -0.00337194 2.9584201 -0.0082277 4.43762207 -0.01449585 C7.53111261 -0.02184959 10.6238791 -0.0112115 13.71728516 0.01220703 C17.67200606 0.04069559 21.6250303 0.02428332 25.57968903 -0.00565529 C28.63222921 -0.02376986 31.68437067 -0.01795158 34.73692322 -0.00501633 C36.19449568 -0.00169372 37.65210499 -0.00572902 39.1096344 -0.01741409 C51.89416131 -0.09742849 51.89416131 -0.09742849 55.86523438 2.98681641 C57.96875 5.6640625 57.96875 5.6640625 58.65625 9.1640625 C57.78864908 13.5809399 56.44596923 14.8642614 52.96875 17.6640625 C49.78161621 18.29898071 49.78161621 18.29898071 46.14648438 18.31103516 C45.48078934 18.31979675 44.8150943 18.32855835 44.12922668 18.33758545 C41.9396449 18.35950318 39.75210048 18.34505727 37.5625 18.328125 C36.03462336 18.33149541 34.50674933 18.33634991 32.97888184 18.34262085 C29.78107099 18.34998172 26.58395979 18.3393132 23.38623047 18.31591797 C19.2935187 18.28742924 15.20244628 18.30383763 11.10979462 18.33378029 C7.95607215 18.35187537 4.80273639 18.34608542 1.64900208 18.33314133 C0.14036361 18.32981335 -1.36831032 18.33387305 -2.87690735 18.34553909 C-4.98854112 18.35828607 -7.0975458 18.33882502 -9.20898438 18.31103516 C-10.40857788 18.30705719 -11.60817139 18.30307922 -12.84411621 18.29898071 C-16.96418101 17.47821059 -18.45723088 15.92122324 -21.03125 12.6640625 C-21.71875 9.1640625 -21.71875 9.1640625 -21.03125 5.6640625 C-15.64468814 -1.19167536 -7.99582958 -0.0641029 0 0 Z " fill="#B0B0B0" transform="translate(117.03125,117.3359375)"/>
<path d="M0 0 C2.375 1.5625 2.375 1.5625 4 4 C4.68409945 7.33451756 4.89803507 8.80643695 4 12 C1.16167023 16.00811941 -2.27416242 19.29769115 -5.8125 22.6875 C-6.72193359 23.61111328 -7.63136719 24.53472656 -8.56835938 25.48632812 C-17.92424976 34.67030815 -27.35593057 39.3877603 -40.50390625 39.28515625 C-48.19884761 38.65752416 -54.89248468 35.62190349 -61 31 C-59 30 -59 30 -56.0625 30.0625 C-52.82398066 30.27092595 -52.82398066 30.27092595 -50 28 C-49.45844979 26.10256272 -49.45844979 26.10256272 -49.375 24 C-49.07826087 20.15652174 -49.07826087 20.15652174 -48 18 C-47.175 18.495 -46.35 18.99 -45.5 19.5 C-40.87902582 21.4804175 -36.89364859 21.98186844 -32.13720703 20.36791992 C-26.2234839 17.57545648 -22.19717355 13.60117873 -17.75 8.875 C-16.3744644 7.43043194 -14.99441726 5.99014317 -13.609375 4.5546875 C-13.01092773 3.92030762 -12.41248047 3.28592773 -11.79589844 2.63232422 C-7.86533336 -0.9402367 -5.13576362 -1.49793106 0 0 Z " fill="#FA9E15" transform="translate(150,148)"/>
<path d="M0 0 C11.59278912 1.42367586 20.40637755 9.73761643 29 17 C31.03556181 18.67425766 33.08062935 20.33646942 35.125 22 C40.96678993 26.76610623 40.96678993 26.76610623 41.2734375 28.92578125 C41.54642857 35.34107143 41.54642857 35.34107143 38.875 38.5625 C35.46915756 40.26542122 33.77383585 40.42853081 30 40 C27.02734375 38.1640625 27.02734375 38.1640625 23.9375 35.625 C22.8009478 34.71073042 21.6642238 33.79667437 20.52734375 32.8828125 C19.94839355 32.40875977 19.36944336 31.93470703 18.77294922 31.44628906 C15.88188981 29.08789799 12.94440422 26.79117688 10 24.5 C8.96875 23.6853125 7.9375 22.870625 6.875 22.03125 C0.70686326 17.67332731 -4.63026463 17.43972772 -12 18 C-15.50829714 18.85715849 -15.50829714 18.85715849 -18 20 C-13.11092314 14.23339653 -8.11235706 8.57003474 -3 3 C-2.48953125 2.39800781 -1.9790625 1.79601562 -1.453125 1.17578125 C-0.73382813 0.59376953 -0.73382813 0.59376953 0 0 Z " fill="#FA9E15" transform="translate(116,67)"/>
</svg>
