<?xml version="1.0" encoding="UTF-8"?>
<svg version="1.1" xmlns="http://www.w3.org/2000/svg" width="1500" height="1500">
<path d="M0 0 C3.21204227 0.45029948 4.21103354 1.82134064 6.22387695 4.31176758 C6.72256161 6.97287185 6.72256161 6.97287185 6.72067094 10.07924962 C6.72966011 11.26650773 6.73864928 12.45376585 6.74791086 13.67700148 C6.73214878 15.63939732 6.73214878 15.63939732 6.71606827 17.64143753 C6.71902596 19.04796593 6.72373939 20.45449155 6.73005426 21.86100888 C6.74236985 25.74777517 6.729598 29.63412523 6.71294172 33.52086062 C6.69923913 37.74098508 6.70868154 41.96106607 6.71525168 46.18119884 C6.72356001 53.58457301 6.71694891 60.98781883 6.70069885 68.39117813 C6.67660245 79.39975231 6.67535155 90.4082452 6.67886681 101.41684094 C6.68412813 119.93316396 6.6707351 138.44942997 6.64679718 156.96573639 C6.6231482 175.30545585 6.60773726 193.64515158 6.60338593 211.98488617 C6.60311097 213.12418826 6.60283601 214.26349036 6.60255272 215.43731676 C6.60119943 221.22299782 6.59999388 227.00867891 6.59884521 232.79436001 C6.59043829 273.79952766 6.56347414 314.80466429 6.52563477 355.80981445 C6.4889113 395.65160965 6.46056987 435.49339636 6.44360352 475.33520508 C6.44281436 477.17658686 6.44281436 477.17658686 6.44200926 479.05516827 C6.43673529 491.38284447 6.43163201 503.71052073 6.42665382 516.03819705 C6.41650832 541.15223517 6.40522331 566.26627274 6.39324951 591.38031006 C6.39242577 593.11245416 6.39242577 593.11245416 6.39158539 594.87959107 C6.35476805 672.02366281 6.29138555 749.16771735 6.22387695 826.31176758 C7.19218445 826.30288513 8.16049194 826.29400269 9.15814209 826.28485107 C18.28083949 826.20378554 27.40346388 826.14381202 36.52643967 826.10451889 C41.21675369 826.08363872 45.90677708 826.05531336 50.59692383 826.01000977 C55.12270211 825.96656714 59.64820076 825.94263371 64.17417145 825.93225861 C65.901384 825.92486436 67.62858115 825.91042513 69.35567474 825.88884735 C71.77399335 825.85983364 74.19115466 825.8558106 76.60961914 825.85766602 C77.32459564 825.84328491 78.03957214 825.82890381 78.7762146 825.81408691 C82.13477317 825.84199185 83.93649807 826.09902752 86.66741943 828.1206665 C88.90902239 831.27628019 88.79765028 834.26779301 88.75512695 837.99926758 C88.75895386 838.73878662 88.76278076 839.47830566 88.76672363 840.24023438 C88.76943967 841.80022548 88.76209987 843.36026235 88.74536133 844.92016602 C88.72394368 847.30433944 88.74516958 849.68550007 88.77075195 852.06958008 C88.76810862 853.58781588 88.76298351 855.10604981 88.75512695 856.62426758 C88.76322388 857.33478271 88.7713208 858.04529785 88.77966309 858.77734375 C88.71854848 862.01270789 88.53244995 863.91726015 86.51246548 866.49978971 C83.77740763 868.6652573 82.53754129 868.81264803 79.08888245 868.81513214 C78.04533317 868.82556313 77.00178389 868.83599412 75.9266119 868.8467412 C74.78148915 868.83781831 73.63636641 868.82889543 72.45654297 868.81970215 C71.23904893 868.82594211 70.02155489 868.83218207 68.76716709 868.83861113 C65.38594468 868.85182341 62.00560862 868.84704492 58.62443972 868.83466625 C54.97883303 868.82563051 51.33330481 868.83957811 47.68771362 868.85058594 C40.5453633 868.86839163 33.40318092 868.86452211 26.26082397 868.85293537 C20.45716328 868.84390936 14.65354972 868.84267344 8.84988403 868.84703064 C8.02452323 868.84764357 7.19916244 868.8482565 6.34879071 868.84888801 C4.67219375 868.85016688 2.99559681 868.85146374 1.31899989 868.85277838 C-14.4100602 868.86419017 -30.13902711 868.85106108 -45.86807191 868.82957691 C-59.37034657 868.81170537 -72.87248368 868.81480931 -86.37475586 868.83325195 C-102.04673688 868.8546481 -117.71863618 868.86309148 -133.39062977 868.8508029 C-135.06112988 868.84952867 -136.73162999 868.84827119 -138.40213013 868.84703064 C-139.22409219 868.84641354 -140.04605425 868.84579644 -140.89292425 868.84516063 C-146.6909957 868.84170396 -152.48901542 868.8475429 -158.28707886 868.85694885 C-165.35104136 868.86815629 -172.41482603 868.86515538 -179.47876811 868.84382588 C-183.08436546 868.83329837 -186.68966609 868.82922218 -190.29526138 868.84242249 C-194.19993917 868.85650176 -198.10412888 868.83971451 -202.00878906 868.81970215 C-203.15391181 868.82862504 -204.29903456 868.83754792 -205.47885799 868.8467412 C-206.52240727 868.83631021 -207.56595655 868.82587922 -208.64112854 868.81513214 C-209.99347768 868.81415803 -209.99347768 868.81415803 -211.37314701 868.81316423 C-214.58121778 868.1437793 -215.77966213 866.86422252 -217.77612305 864.31176758 C-218.17435255 861.609818 -218.33812309 859.32262186 -218.30737305 856.62426758 C-218.31119995 855.88474854 -218.31502686 855.14522949 -218.31896973 854.38330078 C-218.32168576 852.82330968 -218.31434597 851.2632728 -218.29760742 849.70336914 C-218.27618978 847.31919571 -218.29741568 844.93803509 -218.32299805 842.55395508 C-218.32035471 841.03571928 -218.3152296 839.51748535 -218.30737305 837.99926758 C-218.31546997 837.28875244 -218.32356689 836.5782373 -218.33190918 835.84619141 C-218.23430926 830.67932014 -217.74699503 830.28263956 -213.77612305 826.31176758 C-184.73612305 826.31176758 -155.69612305 826.31176758 -125.77612305 826.31176758 C-125.77612305 570.89176758 -125.77612305 315.47176758 -125.77612305 52.31176758 C-154.48612305 52.31176758 -183.19612305 52.31176758 -212.77612305 52.31176758 C-218.34993013 46.73796049 -218.34993013 46.73796049 -218.44520569 41.81651306 C-218.43194748 41.13303299 -218.41868927 40.44955292 -218.4050293 39.74536133 C-218.40744125 39.02945328 -218.40985321 38.31354523 -218.41233826 37.57594299 C-218.41136251 36.06896399 -218.39803347 34.56194794 -218.37304688 33.05517578 C-218.33866529 30.75209701 -218.35241385 28.45284421 -218.37182617 26.1496582 C-218.36492882 24.68154297 -218.35525742 23.21343759 -218.3425293 21.74536133 C-218.34748917 21.05985703 -218.35244904 20.37435272 -218.3575592 19.66807556 C-218.28261987 16.61943855 -218.01645117 14.65693962 -216.25854492 12.13214111 C-212.79826128 9.5946962 -209.6539629 9.74685365 -205.52392578 9.78173828 C-204.691987 9.7730069 -203.86004822 9.76427551 -203.00289917 9.75527954 C-200.23828784 9.73080974 -197.47442333 9.73432821 -194.7097168 9.73754883 C-192.75902569 9.725077 -190.80834573 9.71073549 -188.85768127 9.69462585 C-183.69090536 9.65648019 -178.52432008 9.64141609 -173.35742188 9.63183594 C-165.22458086 9.61225699 -157.09184219 9.55541516 -148.95914078 9.5055275 C-146.95689382 9.49352595 -144.95464294 9.48216236 -142.95238876 9.47143173 C-117.71209404 9.33541892 -92.45468951 8.95568303 -67.27612305 7.06176758 C-66.0170665 6.97105484 -66.0170665 6.97105484 -64.73257446 6.87850952 C-48.55770855 5.70422623 -32.46370321 3.92169054 -16.36987305 1.93774414 C-15.49474564 1.83026352 -14.61961823 1.7227829 -13.7179718 1.61204529 C-12.08702271 1.41043097 -10.45644507 1.2057781 -8.82633972 0.99745178 C-5.88789012 0.63137503 -2.94262713 0.33046652 0 0 Z " fill="#000000" transform="translate(533.776123046875,313.688232421875)"/>
<path d="M0 0 C1.10386014 -0.0055344 2.20772028 -0.01106879 3.34503073 -0.0167709 C7.05710557 -0.03042296 10.76851337 -0.01538282 14.48057556 -0.00050354 C17.13638159 -0.00428504 19.79214251 -0.0096307 22.44793701 -0.01687622 C28.92019952 -0.03082017 35.39226713 -0.02324432 41.86452038 -0.00820064 C49.39809999 0.00864467 56.93163086 0.00545112 64.46522348 0.00170528 C77.90429956 -0.00417531 91.34328198 0.01000658 104.78233337 0.03465271 C117.83022064 0.05857887 130.8779828 0.06565538 143.92588806 0.05516052 C158.12742595 0.04375826 172.32890595 0.0418123 186.53044313 0.05625862 C188.04393064 0.0577845 189.55741816 0.05930485 191.07090569 0.06081963 C191.81561337 0.06157744 192.56032106 0.06233525 193.32759564 0.06311603 C198.58210478 0.06786385 203.83658812 0.06600394 209.09109688 0.06175423 C215.49155227 0.05683404 221.89188923 0.06278297 228.29231746 0.08264852 C231.55953959 0.09253856 234.82654365 0.09600532 238.09378052 0.08975601 C241.63099391 0.08383691 245.16766921 0.09624377 248.70483398 0.11352539 C249.74392302 0.10751535 250.78301206 0.1015053 251.85358864 0.09531313 C252.7976118 0.10375307 253.74163495 0.11219301 254.71426487 0.12088871 C255.53115333 0.12191784 256.34804179 0.12294697 257.18968445 0.12400728 C259.83300698 0.59896777 260.71476388 1.34909721 262.28892517 3.50120544 C262.59936089 6.18258226 262.73319586 8.62732338 262.72251892 11.30979919 C262.72776077 12.07292923 262.73300262 12.83605927 262.73840332 13.62231445 C262.74482271 15.23533411 262.74348753 16.84840058 262.73497009 18.46141052 C262.72646659 20.92669804 262.75520774 23.38966294 262.78697205 25.85472107 C262.78858438 27.42307975 262.78800591 28.99144253 262.78501892 30.55979919 C262.7962529 31.29532516 262.80748688 32.03085114 262.81906128 32.78866577 C262.77764404 35.83831266 262.54898076 38.06895906 260.96351624 40.70420837 C256.60875631 43.63007279 252.11457933 42.9773235 246.99375916 42.87254333 C245.8404158 42.86521179 244.68707245 42.85788025 243.4987793 42.85032654 C240.99201892 42.83285967 238.48530738 42.80675952 235.97871208 42.77310371 C232.00569463 42.72349554 228.03319488 42.70339601 224.05993652 42.69491577 C212.76229736 42.66584928 201.46543293 42.60122168 190.16856384 42.46385193 C183.92723988 42.38828093 177.68696275 42.35257634 171.44517189 42.35988039 C168.1464661 42.36193122 164.85141351 42.33719463 161.55320549 42.27523994 C146.14095225 41.2462038 146.14095225 41.2462038 132.72002506 47.3362112 C130.68416066 49.57462856 128.99045322 52.00350229 127.28892517 54.50120544 C125.93895122 55.77991177 124.55496418 57.02538056 123.11705017 58.20433044 C118.96456285 61.75696711 115.00200115 65.48967286 111.03892517 69.25120544 C105.12779021 74.83837215 99.18342471 80.38125975 93.17564392 85.86448669 C90.05791261 88.7122115 86.95294365 91.57335256 83.85142517 94.43870544 C83.04076599 95.18748962 83.04076599 95.18748962 82.21372986 95.95140076 C81.11911039 96.96257097 80.02454674 97.97380161 78.93003845 98.98509216 C76.21714931 101.49134649 73.50297658 103.9962099 70.78892517 106.50120544 C69.7055856 107.50119868 68.62225227 108.50119869 67.53892517 109.50120544 C56.70559184 119.50120544 45.8722585 129.50120544 35.03892517 139.50120544 C34.50219177 139.99668884 33.96545837 140.49217224 33.41246033 141.00267029 C32.33415969 141.99794988 31.25571027 142.99306832 30.17710876 143.98802185 C27.39050425 146.55891099 24.60690544 149.13294526 21.82798767 151.71214294 C16.40000758 156.74531887 10.96643653 161.74794012 5.28892517 166.50120544 C6.97232438 170.56116824 9.80038907 173.61394913 12.66392517 176.87620544 C13.75518025 178.13392316 14.84632299 179.39173837 15.93736267 180.64964294 C16.49520447 181.28998474 17.05304626 181.93032654 17.62779236 182.59007263 C20.19762604 185.54666553 22.74269273 188.52429212 25.28892517 191.50120544 C26.28879093 192.66798716 27.28879134 193.8346535 28.28892517 195.00120544 C34.28892517 202.00120544 34.28892517 202.00120544 35.78868103 203.7509613 C36.78944123 204.91848772 37.79025509 206.08596814 38.79112244 207.25340271 C41.27993193 210.15654173 43.76782608 213.06045494 46.25376892 215.96604919 C51.41316233 221.99439308 56.58808608 228.00856451 61.78892517 234.00120544 C68.48337876 241.71485624 75.12915166 249.46954941 81.76841736 257.23069763 C87.42197564 263.83831717 93.08900972 270.43350625 98.78892517 277.00120544 C105.48337876 284.71485624 112.12915166 292.46954941 118.76841736 300.23069763 C124.42197564 306.83831717 130.08900972 313.43350625 135.78892517 320.00120544 C141.48749101 326.56734955 147.1529749 333.16113169 152.80503845 339.76731873 C155.29788038 342.68014587 157.79351951 345.59057466 160.28892517 348.50120544 C163.27857352 351.98831885 166.26768375 355.47588371 169.25376892 358.96604919 C174.41316233 364.99439308 179.58808608 371.00856451 184.78892517 377.00120544 C191.48337876 384.71485624 198.12915166 392.46954941 204.76841736 400.23069763 C210.42197564 406.83831717 216.08900972 413.43350625 221.78892517 420.00120544 C229.0412145 428.3576197 236.23904597 436.76015376 243.42564392 445.17308044 C243.94698914 445.78272644 244.46833435 446.39237244 245.00547791 447.02049255 C245.98101116 448.16128093 246.95586045 449.30265482 247.92979431 450.44480896 C248.83294281 451.50064746 249.74601257 452.54809464 250.66964722 453.58605957 C252.28892517 455.50120544 252.28892517 455.50120544 253.89256287 457.77314758 C256.57304877 461.3140526 258.69642231 464.04028282 263.06108093 465.30355835 C266.32042089 465.57003731 269.47364862 465.56587246 272.74205017 465.45823669 C273.91983032 465.45821152 275.09761047 465.45818634 276.31108093 465.4581604 C280.05538051 465.45227782 283.79538145 465.38667854 287.53892517 465.31370544 C291.29600405 465.26731879 295.05226425 465.23386391 298.80961609 465.22280884 C301.14254083 465.21325259 303.47550026 465.18187382 305.80778503 465.12640381 C306.86278198 465.11707321 307.91777893 465.10774261 309.00474548 465.09812927 C309.9310376 465.07986588 310.85732971 465.06160248 311.81169128 465.04278564 C315.09838938 465.6509993 316.26429449 466.89110024 318.28892517 469.50120544 C318.68715467 472.20315502 318.85092521 474.49035116 318.82017517 477.18870544 C318.82591553 478.29798401 318.82591553 478.29798401 318.83177185 479.42967224 C318.83448788 480.98966334 318.82714809 482.54970022 318.81040955 484.10960388 C318.7889919 486.49377731 318.8102178 488.87493793 318.83580017 491.25901794 C318.83315684 492.77725374 318.82803173 494.29548767 318.82017517 495.81370544 C318.82827209 496.52422058 318.83636902 497.23473572 318.8447113 497.96678162 C318.78364707 501.19947906 318.59675076 503.10675368 316.58141804 505.68922758 C313.82815757 507.86539445 312.56253632 508.002103 309.09146118 508.00457001 C308.03397832 508.015001 306.97649546 508.02543199 305.88696766 508.03617907 C304.72628112 508.02725618 303.56559458 508.01833329 302.36973572 508.00914001 C301.13590747 508.01537998 299.90207922 508.02161994 298.63086224 508.02804899 C295.20403774 508.04126199 291.7780877 508.03648223 288.35131598 508.02410412 C284.65662948 508.01506886 280.96202044 508.02901574 277.26734924 508.0400238 C270.02874577 508.05783 262.79030799 508.05395975 255.55169797 508.04237324 C249.66985286 508.03334742 243.78805426 508.03211122 237.90620422 508.03646851 C237.06974198 508.03708144 236.23327974 508.03769437 235.37147015 508.03832588 C233.6723252 508.03960475 231.97318026 508.0409016 230.27403533 508.04221624 C214.33323523 508.05362819 198.39252708 508.04049871 182.45174205 508.01901478 C168.76754089 508.00114322 155.08347545 508.00424716 141.39927673 508.02268982 C125.51634517 508.0440857 109.63349423 508.0525295 93.75055027 508.04024076 C92.05758223 508.03896654 90.36461418 508.03770906 88.67164612 508.03646851 C87.83862762 508.0358514 87.00560912 508.0352343 86.14734763 508.0345985 C80.27112978 508.03114174 74.39496299 508.03698094 68.51875305 508.04638672 C61.35963714 508.05759386 54.2006967 508.05459387 47.04160094 508.03326374 C43.38739852 508.02273585 39.73348888 508.01866073 36.07928848 508.03186035 C32.12206419 508.04593859 28.16532155 508.02915319 24.20811462 508.00914001 C22.46708481 508.02252434 22.46708481 508.02252434 20.69088268 508.03617907 C19.63339982 508.02574808 18.57591696 508.01531709 17.48638916 508.00457001 C16.57267201 508.0039206 15.65895487 508.00327119 14.71754932 508.0026021 C11.48750678 507.33575024 10.29155777 506.07679349 8.28892517 503.50120544 C7.90306619 500.71757557 7.75039328 498.33836533 7.79283142 495.55979919 C7.79137619 494.79571243 7.78992096 494.03162567 7.78842163 493.24438477 C7.7900781 491.63309404 7.80161134 490.02178709 7.82237244 488.41062927 C7.85137006 485.94339444 7.84296945 483.4783036 7.8299408 481.01097107 C7.83617731 479.44390333 7.84456758 477.87684237 7.85533142 476.30979919 C7.85239578 475.57224899 7.84946014 474.83469879 7.84643555 474.07479858 C7.93880101 469.06781313 7.93880101 469.06781313 9.33390808 466.81010437 C12.34950866 464.79113667 15.46361063 465.06200095 18.97325134 465.0688324 C19.75397507 465.05864075 20.53469879 465.0484491 21.33908081 465.03794861 C23.92009086 465.00775015 26.50073021 464.9985424 29.08189392 464.98948669 C30.87123861 464.97264505 32.66057143 464.95449551 34.44989014 464.93508911 C39.15984895 464.88752694 43.86975967 464.85775788 48.57987976 464.83164978 C53.38598637 464.80187556 58.19192709 464.7553345 62.99790955 464.71018982 C72.42816143 464.62408602 81.85844739 464.55677227 91.28892517 464.50120544 C90.68854431 463.83951355 90.08816345 463.17782166 89.46958923 462.49607849 C88.67262634 461.61476257 87.87566345 460.73344666 87.05455017 459.82542419 C86.26854431 458.9574823 85.48253845 458.08954041 84.67271423 457.19529724 C82.39238468 454.61813249 80.20178551 451.98976868 78.03892517 449.31370544 C73.87807748 444.17426117 69.57158028 439.17794393 65.229599 434.19212341 C61.24251297 429.61077198 57.30107012 424.99410102 53.38755798 420.34983826 C50.00410569 416.3373636 46.58792333 412.35410157 43.16392517 408.37620544 C39.67068661 404.31499669 36.22443811 400.22601574 32.85142517 396.06370544 C27.69705725 389.71843664 22.31529752 383.57611096 16.94859314 377.41087341 C10.82814057 370.36848153 4.7286218 363.31117743 -1.14857483 356.06370544 C-6.30294275 349.71843664 -11.68470248 343.57611096 -17.05140686 337.41087341 C-23.17185943 330.36848153 -29.2713782 323.31117743 -35.14857483 316.06370544 C-40.30294275 309.71843664 -45.68470248 303.57611096 -51.05140686 297.41087341 C-57.17185943 290.36848153 -63.2713782 283.31117743 -69.14857483 276.06370544 C-74.30294275 269.71843664 -79.68470248 263.57611096 -85.05140686 257.41087341 C-94.1503988 246.94127722 -103.05458353 236.3411421 -111.71107483 225.50120544 C-107.51566453 220.43956251 -103.10786157 215.88743922 -98.27357483 211.43870544 C-97.57836731 210.79312683 -96.88315979 210.14754822 -96.16688538 209.48240662 C-94.72526251 208.14381504 -93.28230432 206.80666015 -91.83802795 205.47093201 C-89.18177003 203.0110274 -86.53804082 200.53792687 -83.89466858 198.06419373 C-78.18386289 192.72149059 -72.44755126 187.40722325 -66.69471741 182.10984802 C-61.65189833 177.4598364 -56.65252398 172.7640255 -51.65272522 168.06785583 C-47.0061913 163.70667941 -42.33397079 159.37489275 -37.64466858 155.05979919 C-33.30959599 151.06556769 -29.00759883 147.03683994 -24.71107483 143.00120544 C-19.3799574 137.99379913 -14.02672701 133.01236668 -8.64466858 128.05979919 C-4.30959599 124.06556769 -0.00759883 120.03683994 4.28892517 116.00120544 C9.6200426 110.99379913 14.97327299 106.01236668 20.35533142 101.05979919 C24.69040401 97.06556769 28.99240117 93.03683994 33.28892517 89.00120544 C38.61928684 83.994509 43.97153653 79.01353665 49.35313416 74.06199646 C54.33572377 69.47157993 59.27578047 64.8362865 64.20689392 60.19065857 C68.29368626 56.34753481 72.41477908 52.54361377 76.55235291 48.75535583 C77.38234425 47.99500408 77.38234425 47.99500408 78.22910309 47.21929169 C79.58221718 45.979755 80.93554892 44.7404559 82.28892517 43.50120544 C80.57670525 43.49906792 80.57670525 43.49906792 78.82989502 43.49688721 C68.07375524 43.48021945 57.3179939 43.4374525 46.56205463 43.36911488 C41.03223557 43.33482058 35.50269351 43.30973106 29.97276306 43.3056488 C24.63625401 43.30137115 19.30037008 43.27295224 13.96405602 43.22777367 C11.92794116 43.21478168 9.89175156 43.21049698 7.85560036 43.21505165 C5.00366806 43.21994548 2.15357133 43.19391936 -0.69813538 43.16062927 C-1.96157272 43.17356773 -1.96157272 43.17356773 -3.25053406 43.18676758 C-7.52779443 43.10304086 -9.23172859 42.86903351 -12.73493958 40.18083191 C-15.2513492 36.76859694 -15.41929188 34.02338719 -15.33998108 29.93479919 C-15.34239304 29.21889114 -15.34480499 28.50298309 -15.34729004 27.76538086 C-15.34631429 26.25840186 -15.33298525 24.75138581 -15.30799866 23.24461365 C-15.27361707 20.94153488 -15.28736563 18.64228208 -15.30677795 16.33909607 C-15.2998806 14.87098083 -15.2902092 13.40287546 -15.27748108 11.93479919 C-15.28492088 10.90654274 -15.28492088 10.90654274 -15.29251099 9.85751343 C-15.21992311 6.90453706 -14.92336151 4.84073818 -13.34717655 2.31977749 C-9.1575323 -0.57053962 -4.97340221 -0.04607145 0 0 Z " fill="#000000" transform="translate(654.7110748291016,674.4987945556641)"/>
</svg>
